<mxfile host="app.diagrams.net" modified="2023-03-14T08:27:56.951Z" agent="5.0 (Macintosh; Intel Mac OS X 10_15_7) AppleWebKit/537.36 (KHTML, like Gecko) Chrome/111.0.0.0 Safari/537.36" etag="NT0m5Xoy4oZN1qWFktI3" version="21.0.6" type="github">
  <diagram name="第 1 页" id="U67aETpJ9J56oHlb-pqq">
    <mxGraphModel dx="1434" dy="802" grid="1" gridSize="10" guides="1" tooltips="1" connect="1" arrows="1" fold="1" page="1" pageScale="1" pageWidth="827" pageHeight="1169" math="0" shadow="0">
      <root>
        <mxCell id="0" />
        <mxCell id="1" parent="0" />
        <mxCell id="ioFsXFoUWlTZs0BvVSwn-4" value="" style="whiteSpace=wrap;html=1;aspect=fixed;" vertex="1" parent="1">
          <mxGeometry x="124" y="220" width="580" height="580" as="geometry" />
        </mxCell>
        <mxCell id="ioFsXFoUWlTZs0BvVSwn-3" value="" style="sketch=0;aspect=fixed;html=1;points=[];align=center;image;fontSize=12;image=img/lib/mscae/Kubernetes.svg;" vertex="1" parent="1">
          <mxGeometry x="380" y="470" width="50" height="48" as="geometry" />
        </mxCell>
        <mxCell id="ioFsXFoUWlTZs0BvVSwn-6" value="" style="html=1;shadow=0;dashed=0;align=center;verticalAlign=middle;shape=mxgraph.arrows2.arrow;dy=0.6;dx=40;notch=0;" vertex="1" parent="1">
          <mxGeometry y="448" width="100" height="70" as="geometry" />
        </mxCell>
        <mxCell id="ioFsXFoUWlTZs0BvVSwn-7" value="" style="html=1;shadow=0;dashed=0;align=center;verticalAlign=middle;shape=mxgraph.arrows2.arrow;dy=0.6;dx=40;notch=0;" vertex="1" parent="1">
          <mxGeometry x="727" y="448" width="100" height="70" as="geometry" />
        </mxCell>
        <mxCell id="ioFsXFoUWlTZs0BvVSwn-9" value="Pod1" style="rounded=1;whiteSpace=wrap;html=1;strokeWidth=2;" vertex="1" parent="1">
          <mxGeometry x="200" y="250" width="120" height="60" as="geometry" />
        </mxCell>
        <mxCell id="ioFsXFoUWlTZs0BvVSwn-11" value="" style="html=1;shadow=0;dashed=0;align=center;verticalAlign=middle;shape=mxgraph.arrows2.arrow;dy=0.6;dx=40;direction=south;notch=0;" vertex="1" parent="1">
          <mxGeometry x="245" y="330" width="30" height="100" as="geometry" />
        </mxCell>
        <mxCell id="ioFsXFoUWlTZs0BvVSwn-12" value="Pod2" style="rounded=1;whiteSpace=wrap;html=1;strokeWidth=2;" vertex="1" parent="1">
          <mxGeometry x="200" y="458" width="120" height="60" as="geometry" />
        </mxCell>
        <mxCell id="ioFsXFoUWlTZs0BvVSwn-13" value="" style="html=1;shadow=0;dashed=0;align=center;verticalAlign=middle;shape=mxgraph.arrows2.arrow;dy=0.6;dx=40;direction=south;notch=0;" vertex="1" parent="1">
          <mxGeometry x="245" y="560" width="30" height="100" as="geometry" />
        </mxCell>
        <mxCell id="ioFsXFoUWlTZs0BvVSwn-14" value="Pod4" style="rounded=1;whiteSpace=wrap;html=1;strokeWidth=2;" vertex="1" parent="1">
          <mxGeometry x="480" y="250" width="120" height="60" as="geometry" />
        </mxCell>
        <mxCell id="ioFsXFoUWlTZs0BvVSwn-16" value="" style="html=1;shadow=0;dashed=0;align=center;verticalAlign=middle;shape=mxgraph.arrows2.arrow;dy=0.6;dx=40;direction=south;notch=0;" vertex="1" parent="1">
          <mxGeometry x="525" y="330" width="30" height="100" as="geometry" />
        </mxCell>
        <mxCell id="ioFsXFoUWlTZs0BvVSwn-17" value="Pod5" style="rounded=1;whiteSpace=wrap;html=1;strokeWidth=2;" vertex="1" parent="1">
          <mxGeometry x="480" y="458" width="120" height="60" as="geometry" />
        </mxCell>
        <mxCell id="ioFsXFoUWlTZs0BvVSwn-18" value="" style="html=1;shadow=0;dashed=0;align=center;verticalAlign=middle;shape=mxgraph.arrows2.arrow;dy=0.6;dx=40;direction=south;notch=0;" vertex="1" parent="1">
          <mxGeometry x="525" y="560" width="30" height="100" as="geometry" />
        </mxCell>
        <mxCell id="ioFsXFoUWlTZs0BvVSwn-19" value="Pod3" style="rounded=1;whiteSpace=wrap;html=1;strokeWidth=2;" vertex="1" parent="1">
          <mxGeometry x="200" y="700" width="120" height="60" as="geometry" />
        </mxCell>
        <mxCell id="ioFsXFoUWlTZs0BvVSwn-20" value="Pod6" style="rounded=1;whiteSpace=wrap;html=1;strokeWidth=2;" vertex="1" parent="1">
          <mxGeometry x="480" y="700" width="120" height="60" as="geometry" />
        </mxCell>
      </root>
    </mxGraphModel>
  </diagram>
</mxfile>
